<svg xmlns="http://www.w3.org/2000/svg" xmlns:xlink="http://www.w3.org/1999/xlink" contentStyleType="text/css" height="522px" preserveAspectRatio="none" style="width:1578px;height:522px;background:#FFFFFF;" version="1.1" viewBox="0 0 1578 522" width="1578px" zoomAndPan="magnify"><defs/><g><!--class User--><g id="elem_User"><rect codeLine="1" fill="#F1F1F1" height="113.1875" id="User" rx="2.5" ry="2.5" style="stroke:#181818;stroke-width:0.5;" width="115" x="411" y="7"/><ellipse cx="448.95" cy="23" fill="#ADD1B2" rx="11" ry="11" style="stroke:#181818;stroke-width:1.0;"/><path d="M451.9188,28.6406 Q451.3406,28.9375 450.7,29.0781 Q450.0594,29.2344 449.3563,29.2344 Q446.8563,29.2344 445.5281,27.5938 Q444.2156,25.9375 444.2156,22.8125 Q444.2156,19.6875 445.5281,18.0313 Q446.8563,16.375 449.3563,16.375 Q450.0594,16.375 450.7,16.5313 Q451.3563,16.6875 451.9188,16.9844 L451.9188,19.7031 Q451.2938,19.125 450.7,18.8594 Q450.1063,18.5781 449.4813,18.5781 Q448.1375,18.5781 447.45,19.6563 Q446.7625,20.7188 446.7625,22.8125 Q446.7625,24.9063 447.45,25.9844 Q448.1375,27.0469 449.4813,27.0469 Q450.1063,27.0469 450.7,26.7813 Q451.2938,26.5 451.9188,25.9219 L451.9188,28.6406 Z " fill="#000000"/><text fill="#000000" font-family="sans-serif" font-size="14" lengthAdjust="spacing" textLength="32" x="468.05" y="27.8467">User</text><line style="stroke:#181818;stroke-width:0.5;" x1="412" x2="525" y1="39" y2="39"/><text fill="#000000" font-family="sans-serif" font-size="14" lengthAdjust="spacing" textLength="101" x="417" y="55.9951">int employeeId</text><text fill="#000000" font-family="sans-serif" font-size="14" lengthAdjust="spacing" textLength="83" x="417" y="72.292">String name</text><text fill="#000000" font-family="sans-serif" font-size="14" lengthAdjust="spacing" textLength="70" x="417" y="88.5889">String role</text><line style="stroke:#181818;stroke-width:0.5;" x1="412" x2="525" y1="95.8906" y2="95.8906"/><text fill="#000000" font-family="sans-serif" font-size="14" lengthAdjust="spacing" textLength="103" x="417" y="112.8857">boolean login()</text></g><!--class Admin--><g id="elem_Admin"><rect codeLine="8" fill="#F1F1F1" height="96.8906" id="Admin" rx="2.5" ry="2.5" style="stroke:#181818;stroke-width:0.5;" width="243" x="7" y="180.18"/><ellipse cx="102.75" cy="196.18" fill="#ADD1B2" rx="11" ry="11" style="stroke:#181818;stroke-width:1.0;"/><path d="M105.7188,201.8206 Q105.1406,202.1175 104.5,202.2581 Q103.8594,202.4144 103.1563,202.4144 Q100.6563,202.4144 99.3281,200.7738 Q98.0156,199.1175 98.0156,195.9925 Q98.0156,192.8675 99.3281,191.2113 Q100.6563,189.555 103.1563,189.555 Q103.8594,189.555 104.5,189.7113 Q105.1563,189.8675 105.7188,190.1644 L105.7188,192.8831 Q105.0938,192.305 104.5,192.0394 Q103.9063,191.7581 103.2813,191.7581 Q101.9375,191.7581 101.25,192.8363 Q100.5625,193.8988 100.5625,195.9925 Q100.5625,198.0863 101.25,199.1644 Q101.9375,200.2269 103.2813,200.2269 Q103.9063,200.2269 104.5,199.9613 Q105.0938,199.68 105.7188,199.1019 L105.7188,201.8206 Z " fill="#000000"/><text fill="#000000" font-family="sans-serif" font-size="14" lengthAdjust="spacing" textLength="43" x="123.25" y="201.0267">Admin</text><line style="stroke:#181818;stroke-width:0.5;" x1="8" x2="249" y1="212.18" y2="212.18"/><line style="stroke:#181818;stroke-width:0.5;" x1="8" x2="249" y1="220.18" y2="220.18"/><text fill="#000000" font-family="sans-serif" font-size="14" lengthAdjust="spacing" textLength="208" x="13" y="237.1751">addMenuItem(MenuItem item)</text><text fill="#000000" font-family="sans-serif" font-size="14" lengthAdjust="spacing" textLength="231" x="13" y="253.472">updateMenuItem(MenuItem item)</text><text fill="#000000" font-family="sans-serif" font-size="14" lengthAdjust="spacing" textLength="186" x="13" y="269.7689">deleteMenuItem(int itemId)</text></g><!--class Chef--><g id="elem_Chef"><rect codeLine="14" fill="#F1F1F1" height="80.5938" id="Chef" rx="2.5" ry="2.5" style="stroke:#181818;stroke-width:0.5;" width="183" x="687" y="188.33"/><ellipse cx="758.25" cy="204.33" fill="#ADD1B2" rx="11" ry="11" style="stroke:#181818;stroke-width:1.0;"/><path d="M761.2188,209.9706 Q760.6406,210.2675 760,210.4081 Q759.3594,210.5644 758.6563,210.5644 Q756.1563,210.5644 754.8281,208.9237 Q753.5156,207.2675 753.5156,204.1425 Q753.5156,201.0175 754.8281,199.3612 Q756.1563,197.705 758.6563,197.705 Q759.3594,197.705 760,197.8612 Q760.6563,198.0175 761.2188,198.3144 L761.2188,201.0331 Q760.5938,200.455 760,200.1894 Q759.4063,199.9081 758.7813,199.9081 Q757.4375,199.9081 756.75,200.9862 Q756.0625,202.0487 756.0625,204.1425 Q756.0625,206.2362 756.75,207.3144 Q757.4375,208.3769 758.7813,208.3769 Q759.4063,208.3769 760,208.1112 Q760.5938,207.83 761.2188,207.2519 L761.2188,209.9706 Z " fill="#000000"/><text fill="#000000" font-family="sans-serif" font-size="14" lengthAdjust="spacing" textLength="32" x="778.75" y="209.1767">Chef</text><line style="stroke:#181818;stroke-width:0.5;" x1="688" x2="869" y1="220.33" y2="220.33"/><line style="stroke:#181818;stroke-width:0.5;" x1="688" x2="869" y1="228.33" y2="228.33"/><text fill="#000000" font-family="sans-serif" font-size="14" lengthAdjust="spacing" textLength="161" x="693" y="245.3251">rollOutItems(Date date)</text><text fill="#000000" font-family="sans-serif" font-size="14" lengthAdjust="spacing" textLength="171" x="693" y="261.622">viewFeedback(int itemId)</text></g><!--class Employee--><g id="elem_Employee"><rect codeLine="19" fill="#F1F1F1" height="80.5938" id="Employee" rx="2.5" ry="2.5" style="stroke:#181818;stroke-width:0.5;" width="367" x="285" y="188.33"/><ellipse cx="430.25" cy="204.33" fill="#ADD1B2" rx="11" ry="11" style="stroke:#181818;stroke-width:1.0;"/><path d="M433.2188,209.9706 Q432.6406,210.2675 432,210.4081 Q431.3594,210.5644 430.6563,210.5644 Q428.1563,210.5644 426.8281,208.9237 Q425.5156,207.2675 425.5156,204.1425 Q425.5156,201.0175 426.8281,199.3612 Q428.1563,197.705 430.6563,197.705 Q431.3594,197.705 432,197.8612 Q432.6563,198.0175 433.2188,198.3144 L433.2188,201.0331 Q432.5938,200.455 432,200.1894 Q431.4063,199.9081 430.7813,199.9081 Q429.4375,199.9081 428.75,200.9862 Q428.0625,202.0487 428.0625,204.1425 Q428.0625,206.2362 428.75,207.3144 Q429.4375,208.3769 430.7813,208.3769 Q431.4063,208.3769 432,208.1112 Q432.5938,207.83 433.2188,207.2519 L433.2188,209.9706 Z " fill="#000000"/><text fill="#000000" font-family="sans-serif" font-size="14" lengthAdjust="spacing" textLength="68" x="450.75" y="209.1767">Employee</text><line style="stroke:#181818;stroke-width:0.5;" x1="286" x2="651" y1="220.33" y2="220.33"/><line style="stroke:#181818;stroke-width:0.5;" x1="286" x2="651" y1="228.33" y2="228.33"/><text fill="#000000" font-family="sans-serif" font-size="14" lengthAdjust="spacing" textLength="231" x="291" y="245.3251">chooseItem(int itemId, Date date)</text><text fill="#000000" font-family="sans-serif" font-size="14" lengthAdjust="spacing" textLength="355" x="291" y="261.622">giveFeedback(int itemId, int rating, String comment)</text></g><!--class MenuItem--><g id="elem_MenuItem"><rect codeLine="24" fill="#F1F1F1" height="129.4844" id="MenuItem" rx="2.5" ry="2.5" style="stroke:#181818;stroke-width:0.5;" width="242" x="7.5" y="361.52"/><ellipse cx="89.75" cy="377.52" fill="#ADD1B2" rx="11" ry="11" style="stroke:#181818;stroke-width:1.0;"/><path d="M92.7188,383.1606 Q92.1406,383.4575 91.5,383.5981 Q90.8594,383.7544 90.1563,383.7544 Q87.6563,383.7544 86.3281,382.1138 Q85.0156,380.4575 85.0156,377.3325 Q85.0156,374.2075 86.3281,372.5513 Q87.6563,370.895 90.1563,370.895 Q90.8594,370.895 91.5,371.0513 Q92.1563,371.2075 92.7188,371.5044 L92.7188,374.2231 Q92.0938,373.645 91.5,373.3794 Q90.9063,373.0981 90.2813,373.0981 Q88.9375,373.0981 88.25,374.1763 Q87.5625,375.2388 87.5625,377.3325 Q87.5625,379.4263 88.25,380.5044 Q88.9375,381.5669 90.2813,381.5669 Q90.9063,381.5669 91.5,381.3013 Q92.0938,381.02 92.7188,380.4419 L92.7188,383.1606 Z " fill="#000000"/><text fill="#000000" font-family="sans-serif" font-size="14" lengthAdjust="spacing" textLength="69" x="110.25" y="382.3667">MenuItem</text><line style="stroke:#181818;stroke-width:0.5;" x1="8.5" x2="248.5" y1="393.52" y2="393.52"/><text fill="#000000" font-family="sans-serif" font-size="14" lengthAdjust="spacing" textLength="63" x="13.5" y="410.5151">int itemId</text><text fill="#000000" font-family="sans-serif" font-size="14" lengthAdjust="spacing" textLength="83" x="13.5" y="426.812">String name</text><text fill="#000000" font-family="sans-serif" font-size="14" lengthAdjust="spacing" textLength="86" x="13.5" y="443.1089">double price</text><text fill="#000000" font-family="sans-serif" font-size="14" lengthAdjust="spacing" textLength="171" x="13.5" y="459.4057">boolean availabilityStatus</text><line style="stroke:#181818;stroke-width:0.5;" x1="8.5" x2="248.5" y1="466.7075" y2="466.7075"/><text fill="#000000" font-family="sans-serif" font-size="14" lengthAdjust="spacing" textLength="230" x="13.5" y="483.7026">updateAvailability(boolean status)</text></g><!--class Feedback--><g id="elem_Feedback"><rect codeLine="32" fill="#F1F1F1" height="178.375" id="Feedback" rx="2.5" ry="2.5" style="stroke:#181818;stroke-width:0.5;" width="299" x="608" y="337.07"/><ellipse cx="719.25" cy="353.07" fill="#ADD1B2" rx="11" ry="11" style="stroke:#181818;stroke-width:1.0;"/><path d="M722.2188,358.7106 Q721.6406,359.0075 721,359.1481 Q720.3594,359.3044 719.6563,359.3044 Q717.1563,359.3044 715.8281,357.6638 Q714.5156,356.0075 714.5156,352.8825 Q714.5156,349.7575 715.8281,348.1013 Q717.1563,346.445 719.6563,346.445 Q720.3594,346.445 721,346.6013 Q721.6563,346.7575 722.2188,347.0544 L722.2188,349.7731 Q721.5938,349.195 721,348.9294 Q720.4063,348.6481 719.7813,348.6481 Q718.4375,348.6481 717.75,349.7263 Q717.0625,350.7888 717.0625,352.8825 Q717.0625,354.9763 717.75,356.0544 Q718.4375,357.1169 719.7813,357.1169 Q720.4063,357.1169 721,356.8513 Q721.5938,356.57 722.2188,355.9919 L722.2188,358.7106 Z " fill="#000000"/><text fill="#000000" font-family="sans-serif" font-size="14" lengthAdjust="spacing" textLength="68" x="739.75" y="357.9167">Feedback</text><line style="stroke:#181818;stroke-width:0.5;" x1="609" x2="906" y1="369.07" y2="369.07"/><text fill="#000000" font-family="sans-serif" font-size="14" lengthAdjust="spacing" textLength="97" x="614" y="386.0651">int feedbackId</text><text fill="#000000" font-family="sans-serif" font-size="14" lengthAdjust="spacing" textLength="63" x="614" y="402.362">int itemId</text><text fill="#000000" font-family="sans-serif" font-size="14" lengthAdjust="spacing" textLength="101" x="614" y="418.6589">int employeeId</text><text fill="#000000" font-family="sans-serif" font-size="14" lengthAdjust="spacing" textLength="60" x="614" y="434.9557">int rating</text><text fill="#000000" font-family="sans-serif" font-size="14" lengthAdjust="spacing" textLength="110" x="614" y="451.2526">String comment</text><text fill="#000000" font-family="sans-serif" font-size="14" lengthAdjust="spacing" textLength="68" x="614" y="467.5495">Date date</text><line style="stroke:#181818;stroke-width:0.5;" x1="609" x2="906" y1="474.8513" y2="474.8513"/><text fill="#000000" font-family="sans-serif" font-size="14" lengthAdjust="spacing" textLength="286" x="614" y="491.8464">double calculateAverageRating(int itemId)</text><text fill="#000000" font-family="sans-serif" font-size="14" lengthAdjust="spacing" textLength="287" x="614" y="508.1432">String analyzeSentiment(String comment)</text></g><!--class RecommendationEngine--><g id="elem_RecommendationEngine"><rect codeLine="43" fill="#F1F1F1" height="96.8906" id="RecommendationEngine" rx="2.5" ry="2.5" style="stroke:#181818;stroke-width:0.5;" width="296" x="1275.5" y="377.82"/><ellipse cx="1333.75" cy="393.82" fill="#ADD1B2" rx="11" ry="11" style="stroke:#181818;stroke-width:1.0;"/><path d="M1336.7188,399.4606 Q1336.1406,399.7575 1335.5,399.8981 Q1334.8594,400.0544 1334.1563,400.0544 Q1331.6563,400.0544 1330.3281,398.4138 Q1329.0156,396.7575 1329.0156,393.6325 Q1329.0156,390.5075 1330.3281,388.8513 Q1331.6563,387.195 1334.1563,387.195 Q1334.8594,387.195 1335.5,387.3513 Q1336.1563,387.5075 1336.7188,387.8044 L1336.7188,390.5231 Q1336.0938,389.945 1335.5,389.6794 Q1334.9063,389.3981 1334.2813,389.3981 Q1332.9375,389.3981 1332.25,390.4763 Q1331.5625,391.5388 1331.5625,393.6325 Q1331.5625,395.7263 1332.25,396.8044 Q1332.9375,397.8669 1334.2813,397.8669 Q1334.9063,397.8669 1335.5,397.6013 Q1336.0938,397.32 1336.7188,396.7419 L1336.7188,399.4606 Z " fill="#000000"/><text fill="#000000" font-family="sans-serif" font-size="14" lengthAdjust="spacing" textLength="171" x="1354.25" y="398.6667">RecommendationEngine</text><line style="stroke:#181818;stroke-width:0.5;" x1="1276.5" x2="1570.5" y1="409.82" y2="409.82"/><line style="stroke:#181818;stroke-width:0.5;" x1="1276.5" x2="1570.5" y1="417.82" y2="417.82"/><text fill="#000000" font-family="sans-serif" font-size="14" lengthAdjust="spacing" textLength="284" x="1281.5" y="434.8151">List&lt;MenuItem&gt; getRecommendations()</text><text fill="#000000" font-family="sans-serif" font-size="14" lengthAdjust="spacing" textLength="238" x="1281.5" y="451.112">double calculateRatings(int itemId)</text><text fill="#000000" font-family="sans-serif" font-size="14" lengthAdjust="spacing" textLength="248" x="1281.5" y="467.4089">String analyzeSentiments(int itemId)</text></g><!--class Report--><g id="elem_Report"><rect codeLine="49" fill="#F1F1F1" height="96.8906" id="Report" rx="2.5" ry="2.5" style="stroke:#181818;stroke-width:0.5;" width="298" x="942.5" y="377.82"/><ellipse cx="1063.75" cy="393.82" fill="#ADD1B2" rx="11" ry="11" style="stroke:#181818;stroke-width:1.0;"/><path d="M1066.7188,399.4606 Q1066.1406,399.7575 1065.5,399.8981 Q1064.8594,400.0544 1064.1563,400.0544 Q1061.6563,400.0544 1060.3281,398.4138 Q1059.0156,396.7575 1059.0156,393.6325 Q1059.0156,390.5075 1060.3281,388.8513 Q1061.6563,387.195 1064.1563,387.195 Q1064.8594,387.195 1065.5,387.3513 Q1066.1563,387.5075 1066.7188,387.8044 L1066.7188,390.5231 Q1066.0938,389.945 1065.5,389.6794 Q1064.9063,389.3981 1064.2813,389.3981 Q1062.9375,389.3981 1062.25,390.4763 Q1061.5625,391.5388 1061.5625,393.6325 Q1061.5625,395.7263 1062.25,396.8044 Q1062.9375,397.8669 1064.2813,397.8669 Q1064.9063,397.8669 1065.5,397.6013 Q1066.0938,397.32 1066.7188,396.7419 L1066.7188,399.4606 Z " fill="#000000"/><text fill="#000000" font-family="sans-serif" font-size="14" lengthAdjust="spacing" textLength="47" x="1084.25" y="398.6667">Report</text><line style="stroke:#181818;stroke-width:0.5;" x1="943.5" x2="1239.5" y1="409.82" y2="409.82"/><text fill="#000000" font-family="sans-serif" font-size="14" lengthAdjust="spacing" textLength="75" x="948.5" y="426.8151">int reportId</text><text fill="#000000" font-family="sans-serif" font-size="14" lengthAdjust="spacing" textLength="68" x="948.5" y="443.112">Date date</text><line style="stroke:#181818;stroke-width:0.5;" x1="943.5" x2="1239.5" y1="450.4138" y2="450.4138"/><text fill="#000000" font-family="sans-serif" font-size="14" lengthAdjust="spacing" textLength="286" x="948.5" y="467.4089">String generateMonthlyFeedbackReport()</text></g><!--class Notification--><g id="elem_Notification"><rect codeLine="55" fill="#F1F1F1" height="145.7813" id="Notification" rx="2.5" ry="2.5" style="stroke:#181818;stroke-width:0.5;" width="288" x="284.5" y="353.37"/><ellipse cx="386.25" cy="369.37" fill="#ADD1B2" rx="11" ry="11" style="stroke:#181818;stroke-width:1.0;"/><path d="M389.2188,375.0106 Q388.6406,375.3075 388,375.4481 Q387.3594,375.6044 386.6563,375.6044 Q384.1563,375.6044 382.8281,373.9637 Q381.5156,372.3075 381.5156,369.1825 Q381.5156,366.0575 382.8281,364.4012 Q384.1563,362.745 386.6563,362.745 Q387.3594,362.745 388,362.9012 Q388.6563,363.0575 389.2188,363.3544 L389.2188,366.0731 Q388.5938,365.495 388,365.2294 Q387.4063,364.9481 386.7813,364.9481 Q385.4375,364.9481 384.75,366.0262 Q384.0625,367.0887 384.0625,369.1825 Q384.0625,371.2762 384.75,372.3544 Q385.4375,373.4169 386.7813,373.4169 Q387.4063,373.4169 388,373.1512 Q388.5938,372.87 389.2188,372.2919 L389.2188,375.0106 Z " fill="#000000"/><text fill="#000000" font-family="sans-serif" font-size="14" lengthAdjust="spacing" textLength="76" x="406.75" y="374.2167">Notification</text><line style="stroke:#181818;stroke-width:0.5;" x1="285.5" x2="571.5" y1="385.37" y2="385.37"/><text fill="#000000" font-family="sans-serif" font-size="14" lengthAdjust="spacing" textLength="108" x="290.5" y="402.3651">int notificationId</text><text fill="#000000" font-family="sans-serif" font-size="14" lengthAdjust="spacing" textLength="108" x="290.5" y="418.662">String message</text><text fill="#000000" font-family="sans-serif" font-size="14" lengthAdjust="spacing" textLength="68" x="290.5" y="434.9589">Date date</text><text fill="#000000" font-family="sans-serif" font-size="14" lengthAdjust="spacing" textLength="93" x="290.5" y="451.2557">int recipientId</text><line style="stroke:#181818;stroke-width:0.5;" x1="285.5" x2="571.5" y1="458.5575" y2="458.5575"/><text fill="#000000" font-family="sans-serif" font-size="14" lengthAdjust="spacing" textLength="276" x="290.5" y="475.5526">sendNotification(Notification notification)</text><text fill="#000000" font-family="sans-serif" font-size="14" lengthAdjust="spacing" textLength="244" x="290.5" y="491.8495">receiveNotification(int notificationId)</text></g><!--reverse link User to Admin--><g id="link_User_Admin"><path codeLine="64" d="M394.5898,100.0335 C344.6698,123.9735 287.59,151.34 228.18,179.83 " fill="none" id="User-backto-Admin" style="stroke:#181818;stroke-width:1.0;"/><polygon fill="none" points="410.82,92.25,391.9954,94.6234,397.1843,105.4435,410.82,92.25" style="stroke:#181818;stroke-width:1.0;"/></g><!--reverse link User to Chef--><g id="link_User_Chef"><path codeLine="65" d="M542.3714,103.4479 C592.2314,129.6679 648.58,159.3 702.96,187.9 " fill="none" id="User-backto-Chef" style="stroke:#181818;stroke-width:1.0;"/><polygon fill="none" points="526.44,95.07,539.5788,108.7584,545.1641,98.1374,526.44,95.07" style="stroke:#181818;stroke-width:1.0;"/></g><!--reverse link User to Employee--><g id="link_User_Employee"><path codeLine="66" d="M468.5,138.24 C468.5,160.48 468.5,167.57 468.5,187.91 " fill="none" id="User-backto-Employee" style="stroke:#181818;stroke-width:1.0;"/><polygon fill="none" points="468.5,120.24,462.5,138.24,474.5,138.24,468.5,120.24" style="stroke:#181818;stroke-width:1.0;"/></g><!--link Admin to MenuItem--><g id="link_Admin_MenuItem"><path codeLine="68" d="M128.5,277.49 C128.5,302.71 128.5,328 128.5,355.28 " fill="none" id="Admin-to-MenuItem" style="stroke:#181818;stroke-width:1.0;"/><polygon fill="#181818" points="128.5,361.28,132.5,352.28,128.5,356.28,124.5,352.28,128.5,361.28" style="stroke:#181818;stroke-width:1.0;"/></g><!--link Admin to Notification--><g id="link_Admin_Notification"><path codeLine="69" d="M201.89,277.49 C236.67,300.17 273.9339,324.4731 312.5239,349.6331 " fill="none" id="Admin-to-Notification" style="stroke:#181818;stroke-width:1.0;"/><polygon fill="#181818" points="317.55,352.91,312.1955,344.6439,313.3616,350.1792,307.8262,351.3453,317.55,352.91" style="stroke:#181818;stroke-width:1.0;"/></g><!--link Chef to Feedback--><g id="link_Chef_Feedback"><path codeLine="71" d="M774.25,269.22 C772.15,288.76 770.1702,307.2043 767.6302,330.8743 " fill="none" id="Chef-to-Feedback" style="stroke:#181818;stroke-width:1.0;"/><polygon fill="#181818" points="766.99,336.84,771.9274,328.3182,767.5235,331.8685,763.9731,327.4646,766.99,336.84" style="stroke:#181818;stroke-width:1.0;"/></g><!--link Chef to RecommendationEngine--><g id="link_Chef_RecommendationEngine"><path codeLine="72" d="M870.4,242.61 C968.61,258.22 1127.81,288.55 1258.5,337.07 C1287.58,347.87 1312.6576,360.0078 1339.2776,374.5878 " fill="none" id="Chef-to-RecommendationEngine" style="stroke:#181818;stroke-width:1.0;"/><polygon fill="#181818" points="1344.54,377.47,1338.5679,369.6384,1340.1547,375.0681,1334.7249,376.6549,1344.54,377.47" style="stroke:#181818;stroke-width:1.0;"/></g><!--link Chef to Report--><g id="link_Chef_Report"><path codeLine="73" d="M841.84,269.22 C891.86,300.48 956.7421,341.0399 1009.8921,374.2599 " fill="none" id="Chef-to-Report" style="stroke:#181818;stroke-width:1.0;"/><polygon fill="#181818" points="1014.98,377.44,1009.4681,369.2779,1010.7401,374.7899,1005.228,376.0618,1014.98,377.44" style="stroke:#181818;stroke-width:1.0;"/></g><!--link Chef to Notification--><g id="link_Chef_Notification"><path codeLine="74" d="M707.67,269.22 C664.73,293.22 613.8572,321.6522 563.2172,349.9622 " fill="none" id="Chef-to-Notification" style="stroke:#181818;stroke-width:1.0;"/><polygon fill="#181818" points="557.98,352.89,567.7876,351.9897,562.3443,350.4502,563.8839,345.0068,557.98,352.89" style="stroke:#181818;stroke-width:1.0;"/></g><!--link Employee to MenuItem--><g id="link_Employee_MenuItem"><path codeLine="76" d="M390.92,269.38 C353.3,289.09 307.66,313.65 267.5,337.07 C254.42,344.71 245.8904,349.7999 232.5104,358.0899 " fill="none" id="Employee-to-MenuItem" style="stroke:#181818;stroke-width:1.0;"/><polygon fill="#181818" points="227.41,361.25,237.1673,359.9101,231.6603,358.6166,232.9538,353.1096,227.41,361.25" style="stroke:#181818;stroke-width:1.0;"/></g><!--link Employee to Feedback--><g id="link_Employee_Feedback"><path codeLine="77" d="M526.98,269.22 C555.76,288.7 586.7313,309.6667 621.6113,333.2767 " fill="none" id="Employee-to-Feedback" style="stroke:#181818;stroke-width:1.0;"/><polygon fill="#181818" points="626.58,336.64,621.3691,328.2826,622.4394,333.8373,616.8847,334.9075,626.58,336.64" style="stroke:#181818;stroke-width:1.0;"/></g><!--link Employee to Notification--><g id="link_Employee_Notification"><path codeLine="78" d="M460.41,269.22 C455.5,293.22 450.2922,318.7017 444.5022,347.0117 " fill="none" id="Employee-to-Notification" style="stroke:#181818;stroke-width:1.0;"/><polygon fill="#181818" points="443.3,352.89,449.0222,344.874,444.3019,347.9914,441.1845,343.271,443.3,352.89" style="stroke:#181818;stroke-width:1.0;"/></g><!--SRC=[ZLJRQkCm47ttL-ZHWUGFIY1qKmXqjv3G3r2aYJDKbembfsGl_xwoBiueTKlp4AoHvfmpPpGIYblBNYtqx4_5_0-rOz1sobm1TZA43gv7tJ3DMw3htgYuFXh_nJLJfa5TBwf_LIK2x4Qsg1Ckb_8dw67deAtp1qF_jmZRGoUvWwzEI510JemwnysT98IFPpWbFgzElGnkF6lh7nwRZGGHweBm_WGWZroypGDjamC9J9oDiN37ksHti0rUO0Ps6JpjkVEcBRDvmhGjQ4Sefv9lVOZvipsGPZWgO5sFecm2lt1K_8WAtVNWk1iiyNT3DkkSOSCfeYJNG9ISKYYfkHCtSsTk9LFvgUeGcioZzGYknA22KkXv0_i0KVI8m77DrVKt73maZhZrf-Rk8SOy7ngzrVwYvju-etKFsVmrQy2LXsszc5KOfTdlQhFp5sqFdUaTSReFWUHYwL52Ra1xR_me6EtEwfgx5P7e-Fqo3ayeGXM4GPDmURjQiDQRFaCTbGdiq9UIagntY5BK1HzbYSRuVF0JKgHyr1FqX_VeuUzg5PyGiXudd2ppd5PLV6jMg_KqI2H4EQigl19ZE5jtYypT4xexMdnRbx3Jcr68AA8JOH6bCFy1]--></g></svg>